<?xml version="1.0" encoding="iso-8859-1"?>
<!-- Generator: Adobe Illustrator 16.0.0, SVG Export Plug-In . SVG Version: 6.00 Build 0)  -->
<!DOCTYPE svg PUBLIC "-//W3C//DTD SVG 1.1//EN" "http://www.w3.org/Graphics/SVG/1.1/DTD/svg11.dtd">
<svg version="1.1" id="Capa_1" xmlns="http://www.w3.org/2000/svg" xmlns:xlink="http://www.w3.org/1999/xlink" x="0px" y="0px"
	 width="348.565px" height="348.565px" viewBox="0 0 348.565 348.565" style="enable-background:new 0 0 348.565 348.565;"
	 xml:space="preserve">
<g>
	<g>
		<path d="M327.323,143.31c5.163-5.21,7.862-11.25,7.917-18.449c0.056-7.349-3.178-13.297-7.9-18.513
			c15.746-16.572,6.194-41.014-14.795-44.015V224.6c21.181-2.932,30.604-27.666,14.885-43.891
			C338.12,168.294,337.926,155.78,327.323,143.31z"/>
		<path d="M127.637,252c0,11.028,8.971,20,20,20h36.646h101.354c11.028,0,20-8.972,20-20V20c0-11.028-8.972-20-20-20h-138
			c-11.029,0-20,8.972-20,20v41.668c3.987-0.682,7.784-1.104,11.237-1.21c7.939-0.244,13.979-0.469,18.763-0.673V30.001h118v189
			h-118v-94.458c-6.342,1.923-12.323,4.701-18.325,8.475c-2.402,1.509-7.224,5.105-11.675,8.511v38.473 M216.638,254.471
			c-5.387,0-9.754-4.367-9.754-9.752c0-5.387,4.367-9.752,9.754-9.752c5.385,0,9.752,4.365,9.752,9.752
			C226.39,250.104,222.022,254.471,216.638,254.471z"/>
		<path d="M120.204,256.648v-92.263c0-15.938-3.334-24.354-3.334-24.354s15.065-11.906,20.519-15.333
			c11.666-7.333,24.077-11.19,40.667-12.834c46.228-4.581,51.043-49.531,26.561-49.531c-19.102,0-25,2.471-63.444,3.652
			c-20.728,0.637-55.217,7.448-66.535,18.063c-18.125,17-11.75,107.75-18.416,138.649L13.204,288.03l100.433,60.535
			c30.067-46.201,73.067-69.16,73.067-69.16s-32.374,0.003-39.999,0.003C126.533,279.409,120.204,267.023,120.204,256.648z"/>
	</g>
</g>
<g>
</g>
<g>
</g>
<g>
</g>
<g>
</g>
<g>
</g>
<g>
</g>
<g>
</g>
<g>
</g>
<g>
</g>
<g>
</g>
<g>
</g>
<g>
</g>
<g>
</g>
<g>
</g>
<g>
</g>
</svg>
